<?xml version="1.0" standalone="no"?>
<!DOCTYPE svg PUBLIC "-//W3C//DTD SVG 20010904//EN"
 "http://www.w3.org/TR/2001/REC-SVG-20010904/DTD/svg10.dtd">
<svg version="1.0" xmlns="http://www.w3.org/2000/svg"
 width="700.000000pt" height="700.000000pt" viewBox="0 0 700.000000 700.000000"
 preserveAspectRatio="xMidYMid meet">
<metadata>
Created by potrace 1.14, written by Peter Selinger 2001-2017
</metadata>
<g transform="translate(0.000000,700.000000) scale(0.100000,-0.100000)"
fill="#000000" stroke="none">
<path d="M0 3500 l0 -3500 3500 0 3500 0 0 3500 0 3500 -3500 0 -3500 0 0
-3500z m5425 0 l0 -2515 -1925 0 -1925 0 -3 2505 c-1 1378 0 2511 3 2518 3 10
394 12 1927 10 l1923 -3 0 -2515z"/>
<path d="M1760 3500 l0 -2330 1740 0 1740 0 0 2330 0 2330 -1740 0 -1740 0 0
-2330z m1560 -652 c95 -222 175 -406 179 -410 4 -5 44 81 90 190 46 108 124
293 173 410 l90 212 164 0 164 0 0 -505 0 -505 -85 0 -85 0 0 425 0 425 -23 0
c-21 0 -41 -41 -206 -425 l-184 -426 -99 3 -99 3 -182 422 c-163 378 -184 423
-204 423 l-23 0 0 -425 0 -425 -85 0 -85 0 0 505 0 505 164 0 164 0 172 -402z"/>
</g>
</svg>
