<svg width="24" height="24" viewBox="0 0 24 24" fill="currentColor" xmlns="http://www.w3.org/2000/svg">
<path d="M12 5C13.5823 5 15.129 5.46919 16.4446 6.34824C17.7602 7.22729 18.7855 8.47672 19.391 9.93853C19.9965 11.4003 20.155 13.0089 19.8463 14.5607C19.5376 16.1126 18.7757 17.538 17.6569 18.6569C16.538 19.7757 15.1126 20.5376 13.5607 20.8463C12.0089 21.155 10.4003 20.9965 8.93853 20.391C7.47672 19.7855 6.22729 18.7602 5.34824 17.4446C4.46919 16.129 4 14.5823 4 13" stroke="currentColor" fill="none" stroke-linecap="round"/>
<path d="M8.35355 5.35355C8.15829 5.15829 8.15829 4.84171 8.35355 4.64645L11.1464 1.85355C11.4614 1.53857 12 1.76165 12 2.20711V7.79289C12 8.23835 11.4614 8.46143 11.1464 8.14645L8.35355 5.35355Z" fill="currentColor"/>
</svg>
