<svg width="128" height="40" viewBox="0 0 128 40" fill="none" xmlns="http://www.w3.org/2000/svg">
<path fill-rule="evenodd" clip-rule="evenodd" d="M17.7329 23.23H20.9123V32.2811H19.2638V24.636H18.819L15.3248 32.2811H13.4281L9.93394 24.636H9.50266V32.2811H7.85352V23.23H11.034L14.4096 30.6532L17.7329 23.23Z" fill="currentColor"/>
<path fill-rule="evenodd" clip-rule="evenodd" d="M0.103516 39.9721H28.7157V0.0275879H0.103516V39.9721ZM1.73915 38.3442H27.0801V1.65549H1.73915V38.3442Z" fill="currentColor"/>
<path d="M41.628 17.156C41.0387 17.156 40.5013 17.0563 40.016 16.857C39.5393 16.649 39.1277 16.35 38.781 15.96C38.443 15.5613 38.1787 15.0717 37.988 14.491C37.806 13.9017 37.715 13.2257 37.715 12.463C37.715 11.7003 37.806 11.0287 37.988 10.448C38.1787 9.85867 38.443 9.369 38.781 8.979C39.1277 8.58033 39.5393 8.28133 40.016 8.082C40.5013 7.874 41.0387 7.77 41.628 7.77C42.2173 7.77 42.7503 7.874 43.227 8.082C43.7123 8.28133 44.124 8.58033 44.462 8.979C44.8087 9.369 45.073 9.85867 45.255 10.448C45.4457 11.0287 45.541 11.7003 45.541 12.463C45.541 13.2257 45.4457 13.9017 45.255 14.491C45.073 15.0717 44.8087 15.5613 44.462 15.96C44.124 16.35 43.7123 16.649 43.227 16.857C42.7503 17.0563 42.2173 17.156 41.628 17.156ZM41.628 15.843C41.9747 15.843 42.291 15.7823 42.577 15.661C42.8717 15.5397 43.1187 15.3663 43.318 15.141C43.526 14.907 43.6863 14.6253 43.799 14.296C43.9117 13.9667 43.968 13.594 43.968 13.178V11.748C43.968 11.332 43.9117 10.9593 43.799 10.63C43.6863 10.3007 43.526 10.0233 43.318 9.798C43.1187 9.564 42.8717 9.38633 42.577 9.265C42.291 9.14367 41.9747 9.083 41.628 9.083C41.2727 9.083 40.952 9.14367 40.666 9.265C40.38 9.38633 40.133 9.564 39.925 9.798C39.7257 10.0233 39.5697 10.3007 39.457 10.63C39.3443 10.9593 39.288 11.332 39.288 11.748V13.178C39.288 13.594 39.3443 13.9667 39.457 14.296C39.5697 14.6253 39.7257 14.907 39.925 15.141C40.133 15.3663 40.38 15.5397 40.666 15.661C40.952 15.7823 41.2727 15.843 41.628 15.843ZM50.8829 17.156C50.2935 17.156 49.7562 17.0563 49.2709 16.857C48.7942 16.649 48.3825 16.35 48.0359 15.96C47.6979 15.5613 47.4335 15.0717 47.2429 14.491C47.0609 13.9017 46.9699 13.2257 46.9699 12.463C46.9699 11.7003 47.0609 11.0287 47.2429 10.448C47.4335 9.85867 47.6979 9.369 48.0359 8.979C48.3825 8.58033 48.7942 8.28133 49.2709 8.082C49.7562 7.874 50.2935 7.77 50.8829 7.77C51.4722 7.77 52.0052 7.874 52.4819 8.082C52.9672 8.28133 53.3789 8.58033 53.7169 8.979C54.0635 9.369 54.3279 9.85867 54.5099 10.448C54.7005 11.0287 54.7959 11.7003 54.7959 12.463C54.7959 13.2257 54.7005 13.9017 54.5099 14.491C54.3279 15.0717 54.0635 15.5613 53.7169 15.96C53.3789 16.35 52.9672 16.649 52.4819 16.857C52.0052 17.0563 51.4722 17.156 50.8829 17.156ZM50.8829 15.843C51.2295 15.843 51.5459 15.7823 51.8319 15.661C52.1265 15.5397 52.3735 15.3663 52.5729 15.141C52.7809 14.907 52.9412 14.6253 53.0539 14.296C53.1665 13.9667 53.2229 13.594 53.2229 13.178V11.748C53.2229 11.332 53.1665 10.9593 53.0539 10.63C52.9412 10.3007 52.7809 10.0233 52.5729 9.798C52.3735 9.564 52.1265 9.38633 51.8319 9.265C51.5459 9.14367 51.2295 9.083 50.8829 9.083C50.5275 9.083 50.2069 9.14367 49.9209 9.265C49.6349 9.38633 49.3879 9.564 49.1799 9.798C48.9805 10.0233 48.8245 10.3007 48.7119 10.63C48.5992 10.9593 48.5429 11.332 48.5429 11.748V13.178C48.5429 13.594 48.5992 13.9667 48.7119 14.296C48.8245 14.6253 48.9805 14.907 49.1799 15.141C49.3879 15.3663 49.6349 15.5397 49.9209 15.661C50.2069 15.7823 50.5275 15.843 50.8829 15.843ZM60.1378 17.156C59.5484 17.156 59.0111 17.0563 58.5258 16.857C58.0491 16.649 57.6374 16.35 57.2908 15.96C56.9528 15.5613 56.6884 15.0717 56.4978 14.491C56.3158 13.9017 56.2248 13.2257 56.2248 12.463C56.2248 11.7003 56.3158 11.0287 56.4978 10.448C56.6884 9.85867 56.9528 9.369 57.2908 8.979C57.6374 8.58033 58.0491 8.28133 58.5258 8.082C59.0111 7.874 59.5484 7.77 60.1378 7.77C60.7271 7.77 61.2601 7.874 61.7368 8.082C62.2221 8.28133 62.6338 8.58033 62.9718 8.979C63.3184 9.369 63.5828 9.85867 63.7648 10.448C63.9554 11.0287 64.0508 11.7003 64.0508 12.463C64.0508 13.2257 63.9554 13.9017 63.7648 14.491C63.5828 15.0717 63.3184 15.5613 62.9718 15.96C62.6338 16.35 62.2221 16.649 61.7368 16.857C61.2601 17.0563 60.7271 17.156 60.1378 17.156ZM60.1378 15.843C60.4844 15.843 60.8008 15.7823 61.0868 15.661C61.3814 15.5397 61.6284 15.3663 61.8278 15.141C62.0358 14.907 62.1961 14.6253 62.3088 14.296C62.4214 13.9667 62.4778 13.594 62.4778 13.178V11.748C62.4778 11.332 62.4214 10.9593 62.3088 10.63C62.1961 10.3007 62.0358 10.0233 61.8278 9.798C61.6284 9.564 61.3814 9.38633 61.0868 9.265C60.8008 9.14367 60.4844 9.083 60.1378 9.083C59.7824 9.083 59.4618 9.14367 59.1758 9.265C58.8898 9.38633 58.6428 9.564 58.4348 9.798C58.2354 10.0233 58.0794 10.3007 57.9668 10.63C57.8541 10.9593 57.7978 11.332 57.7978 11.748V13.178C57.7978 13.594 57.8541 13.9667 57.9668 14.296C58.0794 14.6253 58.2354 14.907 58.4348 15.141C58.6428 15.3663 58.8898 15.5397 59.1758 15.661C59.4618 15.7823 59.7824 15.843 60.1378 15.843ZM45.06 25.058H44.995L44.28 26.527L42.291 30.154L40.302 26.527L39.587 25.058H39.522V32H38.118V22.926H39.86L42.291 27.541H42.369L44.8 22.926H46.464V32H45.06V25.058ZM52.2159 32.156C51.6266 32.156 51.0892 32.0563 50.6039 31.857C50.1272 31.649 49.7156 31.35 49.3689 30.96C49.0309 30.5613 48.7666 30.0717 48.5759 29.491C48.3939 28.9017 48.3029 28.2257 48.3029 27.463C48.3029 26.7003 48.3939 26.0287 48.5759 25.448C48.7666 24.8587 49.0309 24.369 49.3689 23.979C49.7156 23.5803 50.1272 23.2813 50.6039 23.082C51.0892 22.874 51.6266 22.77 52.2159 22.77C52.8052 22.77 53.3382 22.874 53.8149 23.082C54.3002 23.2813 54.7119 23.5803 55.0499 23.979C55.3966 24.369 55.6609 24.8587 55.8429 25.448C56.0336 26.0287 56.1289 26.7003 56.1289 27.463C56.1289 28.2257 56.0336 28.9017 55.8429 29.491C55.6609 30.0717 55.3966 30.5613 55.0499 30.96C54.7119 31.35 54.3002 31.649 53.8149 31.857C53.3382 32.0563 52.8052 32.156 52.2159 32.156ZM52.2159 30.843C52.5626 30.843 52.8789 30.7823 53.1649 30.661C53.4596 30.5397 53.7066 30.3663 53.9059 30.141C54.1139 29.907 54.2742 29.6253 54.3869 29.296C54.4996 28.9667 54.5559 28.594 54.5559 28.178V26.748C54.5559 26.332 54.4996 25.9593 54.3869 25.63C54.2742 25.3007 54.1139 25.0233 53.9059 24.798C53.7066 24.564 53.4596 24.3863 53.1649 24.265C52.8789 24.1437 52.5626 24.083 52.2159 24.083C51.8606 24.083 51.5399 24.1437 51.2539 24.265C50.9679 24.3863 50.7209 24.564 50.5129 24.798C50.3136 25.0233 50.1576 25.3007 50.0449 25.63C49.9322 25.9593 49.8759 26.332 49.8759 26.748V28.178C49.8759 28.594 49.9322 28.9667 50.0449 29.296C50.1576 29.6253 50.3136 29.907 50.5129 30.141C50.7209 30.3663 50.9679 30.5397 51.2539 30.661C51.5399 30.7823 51.8606 30.843 52.2159 30.843ZM63.5378 28.048H59.4298V32H57.9608V22.926H59.4298V26.748H63.5378V22.926H65.0068V32H63.5378V28.048ZM70.751 32.156C70.1617 32.156 69.6244 32.0563 69.139 31.857C68.6624 31.649 68.2507 31.35 67.904 30.96C67.566 30.5613 67.3017 30.0717 67.111 29.491C66.929 28.9017 66.838 28.2257 66.838 27.463C66.838 26.7003 66.929 26.0287 67.111 25.448C67.3017 24.8587 67.566 24.369 67.904 23.979C68.2507 23.5803 68.6624 23.2813 69.139 23.082C69.6244 22.874 70.1617 22.77 70.751 22.77C71.3404 22.77 71.8734 22.874 72.35 23.082C72.8354 23.2813 73.247 23.5803 73.585 23.979C73.9317 24.369 74.196 24.8587 74.378 25.448C74.5687 26.0287 74.664 26.7003 74.664 27.463C74.664 28.2257 74.5687 28.9017 74.378 29.491C74.196 30.0717 73.9317 30.5613 73.585 30.96C73.247 31.35 72.8354 31.649 72.35 31.857C71.8734 32.0563 71.3404 32.156 70.751 32.156ZM70.751 30.843C71.0977 30.843 71.414 30.7823 71.7 30.661C71.9947 30.5397 72.2417 30.3663 72.441 30.141C72.649 29.907 72.8094 29.6253 72.922 29.296C73.0347 28.9667 73.091 28.594 73.091 28.178V26.748C73.091 26.332 73.0347 25.9593 72.922 25.63C72.8094 25.3007 72.649 25.0233 72.441 24.798C72.2417 24.564 71.9947 24.3863 71.7 24.265C71.414 24.1437 71.0977 24.083 70.751 24.083C70.3957 24.083 70.075 24.1437 69.789 24.265C69.503 24.3863 69.256 24.564 69.048 24.798C68.8487 25.0233 68.6927 25.3007 68.58 25.63C68.4674 25.9593 68.411 26.332 68.411 26.748V28.178C68.411 28.594 68.4674 28.9667 68.58 29.296C68.6927 29.6253 68.8487 29.907 69.048 30.141C69.256 30.3663 69.503 30.5397 69.789 30.661C70.075 30.7823 70.3957 30.843 70.751 30.843ZM75.2299 30.7H76.2309C76.4042 30.5267 76.5559 30.3143 76.6859 30.063C76.8159 29.8117 76.9199 29.491 76.9979 29.101C77.0845 28.711 77.1495 28.2343 77.1929 27.671C77.2362 27.099 77.2579 26.4057 77.2579 25.591V22.926H83.1209V32H81.6519V24.226H78.6749V25.76C78.6749 26.6353 78.6445 27.3893 78.5839 28.022C78.5319 28.646 78.4539 29.179 78.3499 29.621C78.2459 30.063 78.1159 30.427 77.9599 30.713C77.8125 30.999 77.6479 31.233 77.4659 31.415C77.2405 31.6317 76.9979 31.792 76.7379 31.896C76.4779 31.9913 76.1615 32.039 75.7889 32.039H75.2299V30.7ZM85.3573 22.926H86.7873V28.087L86.6443 29.959H86.6833L87.5933 28.282L91.0773 22.926H92.4033V32H90.9733V26.839L91.1163 24.967H91.0773L90.1673 26.644L86.6833 32H85.3573V22.926ZM98.0045 24.226V32H96.5355V24.226H93.8315V22.926H100.709V24.226H98.0045Z" fill="currentColor"/>
</svg>
