<svg width="680" height="52" viewBox="0 0 680 52" fill="none" xmlns="http://www.w3.org/2000/svg">
<path d="M49.4211 10L29.1077 35.3927L8.36606 10H0V51.9958H8.36606V26.0337L8.10917 21.5574C8.62079 22.778 9.21806 23.9191 10.7529 25.8704L27.3115 46.95H29.3602L45.9188 25.9521C46.3448 25.4622 47.6271 23.5904 48.4791 21.5574C48.1365 23.9986 48.1366 25.3826 48.1366 26.0337V51.9958H57.5237V10H49.4167H49.4211ZM106.407 42.0654C106.407 43.8576 106.407 47.7624 108.798 49.9608C110.93 51.9142 114.516 51.9958 117.333 51.9958H149.767C152.585 51.9958 156.168 51.9142 158.303 49.9608C160.694 47.7624 160.694 43.8576 160.694 42.0654V19.9305C160.694 18.1383 160.694 14.2335 158.303 12.0351C156.168 10.0817 152.585 10 149.767 10H117.333C114.516 10 110.93 10.0817 108.798 12.0351C106.407 14.2335 106.407 18.1383 106.407 19.9305V42.0654ZM116.648 44.3454V17.6526H150.448V44.3454H116.648ZM220.749 10.0021H210.506V51.998H220.749V33.9291H252.841V51.998H263.084V10.0021H252.841V26.2808H220.749V10.0021ZM312.901 42.0674C312.901 43.8596 312.901 47.7644 315.292 49.9628C317.424 51.9163 321.012 51.998 323.827 51.998H356.262C359.077 51.998 362.662 51.9163 364.796 49.9628C367.188 47.7644 367.188 43.8596 367.188 42.0674V19.9327C367.188 18.1405 367.188 14.2357 364.796 12.0373C362.662 10.0838 359.077 10.0021 356.262 10.0021H323.827C321.012 10.0021 317.424 10.0838 315.292 12.0373C312.901 14.2357 312.901 18.1405 312.901 19.9327V42.0674ZM323.142 44.3475V17.6546H356.942V44.3475H323.142ZM428.523 10.0042L404.624 52H415.294L433.132 18.8774L450.712 52H462.664L438.424 10.0042H428.523ZM515.297 10.0042H505.054V52H513.589L550.292 20.992V52H560.533V10.0042H551.998L515.297 41.0122V10.0042ZM631.774 17.6546H652.004V10.0042H601.303V17.6546H621.533V51.998H631.774V17.6546Z" fill="currentColor"/>
</svg>
